<?xml version="1.0" encoding="utf-8"?>
<!-- Generator: Adobe Illustrator 24.1.2, SVG Export Plug-In . SVG Version: 6.00 Build 0)  -->
<svg version="1.1" id="Layer_1" xmlns="http://www.w3.org/2000/svg" xmlns:xlink="http://www.w3.org/1999/xlink" x="0px" y="0px"
	 viewBox="0 0 750 600" style="enable-background:new 0 0 750 600;" xml:space="preserve">
<style type="text/css">
	.st0{fill:#252680;}
	.st1{fill:#6349C1;}
	.st2{fill:#365BFF;}
	.st3{fill:#6CA6FF;}
	.st4{fill:#F096B2;}
	.st5{fill:#EF0F60;}
	.st6{fill:#EAD994;}
	.st7{fill:#F6F4F0;}
	.st8{fill:#2C2B2A;}
</style>
<path class="st5" d="M358,270.9c-15.59,0-28.23-12.64-28.23-28.23c0-15.59,12.64-28.23,28.23-28.23c15.59,0,28.23,12.64,28.23,28.23
	C386.23,258.26,373.59,270.9,358,270.9z M442.59,294.14c-16.23,0-29.43,13.2-29.43,29.43c0,16.23,13.2,29.43,29.43,29.43
	c16.21,0,29.41-13.19,29.43-29.4c0-7.87-3.06-15.26-8.63-20.82C457.82,297.21,450.43,294.14,442.59,294.14z M662.71,300L662.71,300
	c0,97.9-79.37,177.27-177.27,177.27H264.56c-97.9,0-177.27-79.37-177.27-177.27v0c0-97.9,79.37-177.27,177.27-177.27h220.89
	C583.35,122.73,662.71,202.1,662.71,300z M257.21,221.85h-5.89c-20.66,0-38.12,18.31-38.12,39.98v11.37h-23.29v20.72h23.29v80.06
	h20.72v-80.06h23.28V273.2h-23.28v-11.37c0-10.08,8.29-19.26,17.4-19.26h5.88V221.85z M316.71,353.07h-8.69
	c-9.59,0-17.4-7.81-17.4-17.4V221.67h-20.72v114.01c0,21.02,17.1,38.12,38.12,38.12h8.69V353.07z M370.82,312.34l-12.72-20.63
	c27.04-0.06,48.94-21.99,48.94-49.04c0-27.09-21.96-49.04-49.04-49.04c-27.09,0-49.04,21.96-49.04,49.04
	c0,27.05,21.9,48.98,48.94,49.04l-12.72,20.63H370.82z M492.74,323.57c0-27.65-22.5-50.15-50.15-50.15
	c-27.65,0-50.15,22.5-50.15,50.15c0,27.65,22.5,50.15,50.15,50.15c10.71,0,20.83-3.3,29.43-9.55v9.62h20.72V323.57z M560.08,273.1
	h-23.11v-30.59h-20.72v30.59h-23.51v20.72h23.51v41.85c0,21.02,17.1,38.12,38.12,38.12h5.71v-20.72h-5.71
	c-9.59,0-17.4-7.81-17.4-17.4v-41.85h23.11V273.1z"/>
</svg>
