<?xml version="1.0" encoding="utf-8"?>
<!-- Generator: Adobe Illustrator 24.1.2, SVG Export Plug-In . SVG Version: 6.00 Build 0)  -->
<svg version="1.1" id="Layer_1" xmlns="http://www.w3.org/2000/svg" xmlns:xlink="http://www.w3.org/1999/xlink" x="0px" y="0px"
	 viewBox="0 0 750 600" style="enable-background:new 0 0 750 600;" xml:space="preserve">
<style type="text/css">
	.st0{fill:#252680;}
	.st1{fill:#6349C1;}
	.st2{fill:#365BFF;}
	.st3{fill:#6CA6FF;}
	.st4{fill:#F096B2;}
	.st5{fill:#EF0F60;}
	.st6{fill:#EAD994;}
	.st7{fill:#F6F4F0;}
	.st8{fill:#2C2B2A;}
</style>
<path class="st5" d="M217.78,221.24h7.48v26.35h-7.48c-11.58,0-22.12,11.67-22.12,24.48v14.45h29.6v26.35h-29.6v101.78h-26.34
	V312.87h-29.6v-26.35h29.6v-14.45C169.31,244.52,191.51,221.24,217.78,221.24z M524.68,350.56v63.85h-26.34v-12.23
	c-10.93,7.95-23.8,12.14-37.41,12.14c-35.16,0-63.76-28.6-63.76-63.76s28.6-63.76,63.76-63.76S524.68,315.4,524.68,350.56z
	 M487.36,324.11c-7.08-7.07-16.47-10.97-26.44-10.97c-20.63,0-37.41,16.78-37.41,37.41c0,20.63,16.78,37.41,37.41,37.41
	c20.61,0,37.39-16.77,37.41-37.38C498.33,340.58,494.44,331.19,487.36,324.11z M610.29,312.74V286.4H580.9v-38.89h-26.34v38.89
	h-29.88v26.35h29.88v53.2c0,26.72,21.74,48.46,48.46,48.46h7.26v-26.35h-7.26c-12.2,0-22.12-9.92-22.12-22.12v-53.2H610.29z
	 M267.72,365.94V221h-26.34v144.94c0,26.72,21.74,48.46,48.46,48.46h11.05v-26.35h-11.05C277.64,388.06,267.72,378.14,267.72,365.94
	z M415.73,247.7c0,34.43-27.91,62.35-62.35,62.35c-34.43,0-62.35-27.91-62.35-62.35c0-34.43,27.91-62.35,62.35-62.35
	C387.82,185.36,415.73,213.27,415.73,247.7z M389.28,247.7c0-19.82-16.07-35.89-35.89-35.89c-19.82,0-35.89,16.07-35.89,35.89
	c0,19.82,16.07,35.89,35.89,35.89C373.21,283.6,389.28,267.53,389.28,247.7z M369.69,336.28l-16.3-26.45l-16.3,26.45H369.69z"/>
</svg>
