<svg version="1.2" baseProfile="tiny-ps" xmlns="http://www.w3.org/2000/svg" viewBox="0 0 200 102" width="200" height="102"><title>logo-svg</title><style>tspan { white-space:pre }.shp0 { fill: #ef0f60 } </style><path fill-rule="evenodd" class="shp0" d="M35.3 17.3L38.38 17.3L38.38 28.1L35.3 28.1C30.53 28.1 26.2 32.88 26.2 38.13L26.2 44.04L38.38 44.04L38.38 54.84L26.2 54.84L26.2 96.53L15.36 96.53L15.36 54.84L3.18 54.84L3.18 44.04L15.36 44.04L15.36 38.13C15.35 26.84 24.49 17.3 35.3 17.3ZM161.6 70.28L161.6 96.43L150.76 96.43L150.76 91.42C146.26 94.68 140.96 96.4 135.36 96.4C120.89 96.4 109.12 84.68 109.12 70.28C109.12 55.87 120.89 44.16 135.36 44.16C149.83 44.16 161.6 55.87 161.6 70.28ZM146.24 59.44C143.33 56.55 139.46 54.95 135.36 54.95C126.87 54.95 119.96 61.82 119.96 70.27C119.96 78.72 126.87 85.6 135.36 85.6C143.84 85.6 150.74 78.73 150.75 70.29C150.75 66.19 149.15 62.34 146.24 59.44ZM196.83 54.79L184.73 54.79L184.73 76.58C184.73 81.58 188.81 85.64 193.84 85.64L196.82 85.64L196.82 96.43L193.84 96.43C182.84 96.43 173.89 87.53 173.89 76.58L173.89 54.79L161.6 54.79L161.6 44L173.89 44L173.89 28.06L184.73 28.06L184.73 44L196.83 44L196.83 54.79ZM64.95 85.63L69.5 85.63L69.5 96.43L64.95 96.43C53.96 96.43 45.01 87.52 45.01 76.58L45.01 17.2L55.85 17.2L55.85 76.58C55.85 81.58 59.93 85.64 64.95 85.63ZM116.76 28.14C116.76 42.23 105.31 53.65 91.16 53.68L91.11 53.59L91.05 53.68C76.91 53.66 65.44 42.23 65.44 28.14C65.44 14.04 76.93 2.6 91.1 2.6C105.28 2.61 116.76 14.04 116.76 28.14ZM91.1 53.68C91.09 53.68 91.07 53.68 91.05 53.68L84.4 64.43L97.81 64.43L91.16 53.68C91.14 53.68 91.12 53.68 91.1 53.68ZM105.88 28.14C105.88 20.02 99.26 13.44 91.11 13.44C82.95 13.44 76.34 20.02 76.34 28.14C76.34 36.26 82.95 42.84 91.11 42.84C99.26 42.85 105.88 36.27 105.88 28.14Z" /></svg>